<svg xmlns="http://www.w3.org/2000/svg" viewBox="0 0 100 100">
  <rect width="100" height="100" rx="20" fill="#7a3b5e"/>
  <circle cx="50" cy="38" r="17" fill="#f2d0b6"/>
  <path d="M28 40 Q28 14 50 16 Q72 14 72 40 Q72 30 66 26 Q60 34 34 30 Q30 34 28 40 Z" fill="#5a2e1e"/>
  <path d="M28 40 Q26 58 32 62 L36 46 Z" fill="#5a2e1e"/>
  <path d="M72 40 Q74 58 68 62 L64 46 Z" fill="#5a2e1e"/>
  <path d="M22 92 Q22 66 50 66 Q78 66 78 92 Z" fill="#b8506e"/>
  <circle cx="43" cy="38" r="2.2" fill="#3a2a20"/>
  <circle cx="57" cy="38" r="2.2" fill="#3a2a20"/>
  <path d="M44 47 Q50 51 56 47" stroke="#3a2a20" stroke-width="1.8" fill="none" stroke-linecap="round"/>
</svg>
