<svg xmlns="http://www.w3.org/2000/svg" viewBox="0 0 100 100">
  <rect width="100" height="100" rx="20" fill="#8a6d2e"/>
  <circle cx="50" cy="38" r="17" fill="#c68a5a"/>
  <path d="M35 26 Q42 20 50 21 Q58 20 65 26 Q58 23 50 24 Q42 23 35 26 Z" fill="#7a5230"/>
  <path d="M40 52 Q50 60 60 52 L60 56 Q50 63 40 56 Z" fill="#7a5230"/>
  <path d="M22 92 Q22 66 50 66 Q78 66 78 92 Z" fill="#666e78"/>
  <rect x="44" y="66" width="12" height="26" fill="#d9d4c8"/>
  <circle cx="43" cy="38" r="2.2" fill="#33251a"/>
  <circle cx="57" cy="38" r="2.2" fill="#33251a"/>
  <path d="M44 48 Q50 46 56 48" stroke="#33251a" stroke-width="1.8" fill="none" stroke-linecap="round"/>
</svg>
