<svg xmlns="http://www.w3.org/2000/svg" viewBox="0 0 100 100">
  <rect width="100" height="100" rx="20" fill="#2e5e7a"/>
  <circle cx="50" cy="38" r="17" fill="#e3b28a"/>
  <path d="M33 30 Q34 18 50 18 Q66 18 67 30 Q60 24 50 25 Q40 24 33 30 Z" fill="#2b2b2b"/>
  <path d="M22 92 Q22 66 50 66 Q78 66 78 92 Z" fill="#3f7d5a"/>
  <rect x="36" y="34" width="10" height="7" rx="3" fill="none" stroke="#2b2b2b" stroke-width="1.8"/>
  <rect x="54" y="34" width="10" height="7" rx="3" fill="none" stroke="#2b2b2b" stroke-width="1.8"/>
  <path d="M46 37.5 L54 37.5" stroke="#2b2b2b" stroke-width="1.8"/>
  <circle cx="41" cy="38" r="1.8" fill="#2b2b2b"/>
  <circle cx="59" cy="38" r="1.8" fill="#2b2b2b"/>
  <path d="M45 48 Q50 50 55 48" stroke="#5a3a26" stroke-width="1.8" fill="none" stroke-linecap="round"/>
</svg>
